<svg xmlns="http://www.w3.org/2000/svg" xmlns:xlink="http://www.w3.org/1999/xlink" preserveAspectRatio="xMidYMid" width="119" height="47" viewBox="0 0 119 47">
  <defs>
    <style>

      .cls-3 {
        filter: url(#color-overlay-1);
        font-size: 16px;
        opacity: 0.7;
      }

      .cls-4 {
        fill: #b7bacd;
        text-anchor: middle;
        font-size: 16px;
        font-family: "Lato";
      }

      .cls-5 {
        fill: #bdc3c7;
        filter: url(#color-overlay-1);
        opacity: 0.7;
      }
    </style>

    <filter id="color-overlay-1" filterUnits="userSpaceOnUse">
      <feFlood flood-color="#b7bacd" flood-opacity="1"/>
      <feComposite operator="in" in2="SourceGraphic"/>
      <feBlend mode="normal" in2="SourceGraphic" result="colorOverlay"/>
    </filter>
  </defs>
  <g id="group3svg">
    <text class="cls-3" x="-14px" y="35px"><tspan x="60px" class="cls-4">WHERE TO BUY</tspan></text>
    <path d="M67.946,7.765 C67.946,7.765 67.970,7.771 67.970,7.771 C67.970,7.771 65.470,19.021 65.470,19.021 C65.470,19.021 65.446,19.015 65.446,19.015 C65.321,19.574 64.846,19.999 64.250,19.999 C64.250,19.999 51.750,19.999 51.750,19.999 C51.154,19.999 50.679,19.574 50.554,19.015 C50.554,19.015 50.530,19.021 50.530,19.021 C50.530,19.021 48.030,7.771 48.030,7.771 C48.030,7.771 48.054,7.765 48.054,7.765 C48.034,7.677 48.000,7.594 48.000,7.500 C48.000,6.809 48.560,6.250 49.250,6.250 C49.250,6.250 51.750,6.250 51.750,6.250 C51.750,2.798 54.548,-0.001 58.000,-0.001 C61.452,-0.001 64.250,2.798 64.250,6.250 C64.250,6.250 66.750,6.250 66.750,6.250 C67.440,6.250 68.000,6.809 68.000,7.500 C68.000,7.594 67.966,7.677 67.946,7.765 ZM58.000,2.499 C55.929,2.499 54.250,4.178 54.250,6.250 C54.250,6.250 61.750,6.250 61.750,6.250 C61.750,4.178 60.071,2.499 58.000,2.499 ZM63.000,11.250 C62.310,11.250 61.750,10.690 61.750,9.999 C61.750,9.999 61.750,8.750 61.750,8.750 C61.750,8.750 54.250,8.750 54.250,8.750 C54.250,8.750 54.250,9.999 54.250,9.999 C54.250,10.690 53.690,11.250 53.000,11.250 C52.310,11.250 51.750,10.690 51.750,9.999 C51.750,9.999 51.750,8.750 51.750,8.750 C51.750,8.750 50.808,8.750 50.808,8.750 C50.808,8.750 52.753,17.499 52.753,17.499 C52.753,17.499 63.247,17.499 63.247,17.499 C63.247,17.499 65.192,8.750 65.192,8.750 C65.192,8.750 64.250,8.750 64.250,8.750 C64.250,8.750 64.250,9.999 64.250,9.999 C64.250,10.690 63.690,11.250 63.000,11.250 Z" id="path-1" class="cls-5" fill-rule="evenodd"/>
  </g>
</svg>
