<svg xmlns="http://www.w3.org/2000/svg" xmlns:xlink="http://www.w3.org/1999/xlink" preserveAspectRatio="xMidYMid" width="111" height="47" viewBox="0 0 111 47">
  <defs>
    <style>

      .cls-3 {
        font-size: 16px;
      }

      .cls-4 {
        fill: #fbfbfb;
        text-anchor: middle;
        font-size: 16px;
        font-family: "Lato";
      }

      .cls-5 {
        fill: #bdc3c7;
        filter: url(#color-overlay-1);
      }
    </style>

    <filter id="color-overlay-1" filterUnits="userSpaceOnUse">
      <feFlood flood-color="#ffffff" flood-opacity="1"/>
      <feComposite operator="in" in2="SourceGraphic"/>
      <feBlend mode="normal" in2="SourceGraphic" result="colorOverlay"/>
    </filter>
  </defs>
  <g id="group0svg">
    <text class="cls-3" x="-18px" y="35px"><tspan x="56px" class="cls-4">INFORMATION</tspan></text>
    <path d="M63.400,18.187 C63.400,18.187 59.780,18.187 59.780,18.187 C59.780,18.187 55.990,21.977 55.990,21.977 C55.990,21.977 55.990,21.977 55.990,21.977 C55.736,22.230 55.386,22.387 55.000,22.387 C54.613,22.387 54.263,22.230 54.010,21.977 C54.010,21.977 54.010,21.977 54.010,21.977 C54.010,21.977 50.220,18.187 50.220,18.187 C50.220,18.187 46.600,18.187 46.600,18.187 C45.053,18.187 43.800,16.933 43.800,15.387 C43.800,15.387 43.800,2.787 43.800,2.787 C43.800,1.241 45.053,-0.013 46.600,-0.013 C46.600,-0.013 63.400,-0.013 63.400,-0.013 C64.946,-0.013 66.200,1.241 66.200,2.787 C66.200,2.787 66.200,15.387 66.200,15.387 C66.200,16.933 64.946,18.187 63.400,18.187 ZM63.400,4.187 C63.400,3.413 62.773,2.787 62.000,2.787 C62.000,2.787 48.000,2.787 48.000,2.787 C47.226,2.787 46.600,3.413 46.600,4.187 C46.600,4.187 46.600,13.987 46.600,13.987 C46.600,14.760 47.226,15.387 48.000,15.387 C48.000,15.387 49.400,15.387 49.400,15.387 C49.400,15.387 50.800,15.387 50.800,15.387 C51.186,15.387 51.536,15.544 51.790,15.797 C51.790,15.797 51.790,15.797 51.790,15.797 C51.790,15.797 55.000,19.007 55.000,19.007 C55.000,19.007 58.210,15.797 58.210,15.797 C58.210,15.797 58.210,15.797 58.210,15.797 C58.463,15.544 58.813,15.387 59.200,15.387 C59.200,15.387 60.600,15.387 60.600,15.387 C60.600,15.387 62.000,15.387 62.000,15.387 C62.773,15.387 63.400,14.760 63.400,13.987 C63.400,13.987 63.400,4.187 63.400,4.187 ZM59.200,12.587 C59.200,12.587 50.800,12.587 50.800,12.587 C50.026,12.587 49.400,11.960 49.400,11.187 C49.400,10.414 50.026,9.787 50.800,9.787 C50.800,9.787 59.200,9.787 59.200,9.787 C59.973,9.787 60.600,10.414 60.600,11.187 C60.600,11.960 59.973,12.587 59.200,12.587 ZM59.200,8.387 C59.200,8.387 50.800,8.387 50.800,8.387 C50.026,8.387 49.400,7.760 49.400,6.987 C49.400,6.214 50.026,5.587 50.800,5.587 C50.800,5.587 59.200,5.587 59.200,5.587 C59.973,5.587 60.600,6.214 60.600,6.987 C60.600,7.760 59.973,8.387 59.200,8.387 Z" id="path-1" class="cls-5" fill-rule="evenodd"/>
  </g>
</svg>
